<svg xmlns="http://www.w3.org/2000/svg" xmlns:xlink="http://www.w3.org/1999/xlink" version="1.1" x="0px" y="0px" viewBox="0 0 100 125" enable-background="new 0 0 100 100" xml:space="preserve">
	<path d="M1.4,28.2c0-2.2,1.8-4,4-4H23c2.2,0,4,1.8,4,4v0c0,2.2-1.8,4-4,4H5.4C3.2,32.2,1.4,30.4,1.4,28.2z M5.4,48.1H23  c2.2,0,4-1.8,4-4v0c0-2.2-1.8-4-4-4H5.4c-2.2,0-4,1.8-4,4S3.2,48.1,5.4,48.1z M1.4,60c0,2.2,1.8,4,4,4H23c2.2,0,4-1.8,4-4v0  c0-2.2-1.8-4-4-4H5.4C3.2,56,1.4,57.8,1.4,60L1.4,60z M98.6,26.4v35.4c0,4.8-3.9,8.7-8.7,8.7H66c0,0,0,0.1-0.1,0.1L54.8,81.7  c-1.1,1.1-3,0.3-3-1.2v-10H43c-4.8,0-8.7-3.9-8.7-8.7V26.4c0-4.8,3.9-8.7,8.7-8.7h47C94.7,17.7,98.6,21.6,98.6,26.4z M68.9,54.6  c0-0.8-0.6-1.4-1.4-1.4h-3.7c-0.8,0-1.4,0.6-1.4,1.4V57c0,0.8,0.6,1.4,1.4,1.4h3.7c0.8,0,1.4-0.6,1.4-1.4V54.6z M76.1,38.4  c0-2.6-0.9-4.7-2.7-6.3c-1.8-1.6-4.2-2.3-7.3-2.3c-2.9,0-5.2,0.7-6.9,2c-1.5,1.2-2.4,2.9-2.5,5.1c0,0.5,0.4,1,0.9,1l4.2,0.1  c0.7,0,1.3-0.4,1.5-1.1c0.1-0.5,0.4-1,0.8-1.3c0.6-0.5,1.3-0.8,2.2-0.8c1.1,0,1.9,0.3,2.5,1c0.6,0.6,0.9,1.5,0.9,2.6  c0,1-0.2,2-0.7,2.8c-0.5,0.8-1.2,1.5-2.1,2c-1.7,1.2-2.8,2.2-3.5,3.1c-0.5,0.7-0.8,1.7-0.9,3c-0.1,0.6,0.4,1.1,1,1.1h4.5  c0.5,0,1-0.4,1-0.9c0.1-0.7,0.2-1.2,0.4-1.6c0.3-0.6,0.9-1.2,1.7-1.8c1.5-0.8,2.7-1.8,3.7-3.2C75.7,41.5,76.1,40,76.1,38.4z" />
</svg>
