<svg xmlns="http://www.w3.org/2000/svg" xmlns:xlink="http://www.w3.org/1999/xlink" version="1.1" fill="#eee" x="0px" y="0px" viewBox="0 0 100 125" style="enable-background:new 0 0 100 100;" xml:space="preserve">
	<path d="M92.5,10c-1.4,0-2.5,1.1-2.5,2.5V40H30V12.5c0-1.4-1.1-2.5-2.5-2.5S25,11.1,25,12.5v30c0,1.4,1.1,2.5,2.5,2.5h65  c1.4,0,2.5-1.1,2.5-2.5v-30C95,11.1,93.9,10,92.5,10z" />
	<path d="M92.5,60h-65c-1.4,0-2.5,1.1-2.5,2.5v30c0,1.4,1.1,2.5,2.5,2.5s2.5-1.1,2.5-2.5V65h60v27.5c0,1.4,1.1,2.5,2.5,2.5  s2.5-1.1,2.5-2.5v-30C95,61.1,93.9,60,92.5,60z" />
	<path d="M5.7,64.3C6.2,64.8,6.9,65,7.5,65s1.3-0.2,1.8-0.7l10-10c1-1,1-2.6,0-3.5l-10-10c-1-1-2.6-1-3.5,0c-1,1-1,2.6,0,3.5l8.2,8.2  l-8.2,8.2C4.8,61.7,4.8,63.3,5.7,64.3z" />
</svg>
